<svg xmlns="http://www.w3.org/2000/svg" xmlns:xlink="http://www.w3.org/1999/xlink" viewBox="0 0 1000 1000" width="1000" height="1000" preserveAspectRatio="xMidYMid meet" style="width: 100%; height: 100%; transform: translate3d(0px, 0px, 0px); content-visibility: visible;"><defs><clipPath id="__lottie_element_197"><rect width="1000" height="1000" x="0" y="0"></rect></clipPath><clipPath id="__lottie_element_199"><path d="M0,0 L1000,0 L1000,1000 L0,1000z"></path></clipPath><clipPath id="__lottie_element_203"><path d="M0,0 L1000,0 L1000,1000 L0,1000z"></path></clipPath><clipPath id="__lottie_element_213"><path d="M0,0 L1000,0 L1000,1000 L0,1000z"></path></clipPath><clipPath id="__lottie_element_223"><path d="M0,0 L1000,0 L1000,1000 L0,1000z"></path></clipPath><clipPath id="__lottie_element_233"><path d="M0,0 L1000,0 L1000,1000 L0,1000z"></path></clipPath><clipPath id="__lottie_element_243"><path d="M0,0 L1000,0 L1000,1000 L0,1000z"></path></clipPath><clipPath id="__lottie_element_253"><path d="M0,0 L1000,0 L1000,1000 L0,1000z"></path></clipPath><clipPath id="__lottie_element_263"><path d="M0,0 L1000,0 L1000,1000 L0,1000z"></path></clipPath><clipPath id="__lottie_element_273"><path d="M0,0 L1000,0 L1000,1000 L0,1000z"></path></clipPath><clipPath id="__lottie_element_283"><path d="M0,0 L1000,0 L1000,1000 L0,1000z"></path></clipPath><clipPath id="__lottie_element_293"><path d="M0,0 L1000,0 L1000,1000 L0,1000z"></path></clipPath><clipPath id="__lottie_element_303"><path d="M0,0 L1000,0 L1000,1000 L0,1000z"></path></clipPath><clipPath id="__lottie_element_313"><path d="M0,0 L1000,0 L1000,1000 L0,1000z"></path></clipPath><clipPath id="__lottie_element_323"><path d="M0,0 L1000,0 L1000,1000 L0,1000z"></path></clipPath><clipPath id="__lottie_element_333"><path d="M0,0 L1000,0 L1000,1000 L0,1000z"></path></clipPath><clipPath id="__lottie_element_343"><path d="M0,0 L1000,0 L1000,1000 L0,1000z"></path></clipPath><clipPath id="__lottie_element_353"><path d="M0,0 L1000,0 L1000,1000 L0,1000z"></path></clipPath><clipPath id="__lottie_element_363"><path d="M0,0 L1000,0 L1000,1000 L0,1000z"></path></clipPath><clipPath id="__lottie_element_373"><path d="M0,0 L1000,0 L1000,1000 L0,1000z"></path></clipPath></defs><g clip-path="url(#__lottie_element_197)"><g clip-path="url(#__lottie_element_199)" transform="matrix(1,0,0,1,0,-37.034515380859375)" opacity="1" style="display: block;"><g transform="matrix(1,0,0,1,0,0)" opacity="1" style="display: block;"><g opacity="1" transform="matrix(1,0,0,1,704.7899780273438,422.8320007324219)"><path fill="rgb(60,37,254)" fill-opacity="1" d=" M-7.491000175476074,11.609000205993652 C-7.491000175476074,11.609000205993652 0.7269999980926514,13.916999816894531 0.7269999980926514,13.916999816894531 C1.8580000400543213,14.234000205993652 2.989000082015991,14.380999565124512 4.111000061035156,14.380999565124512 C9.586000442504883,14.380999565124512 14.621000289916992,10.760000228881836 16.172000885009766,5.23199987411499 C18.035999298095703,-1.4299999475479126 14.156000137329102,-8.343999862670898 7.488999843597412,-10.215999603271484 C7.488999843597412,-10.215999603271484 -0.7289999723434448,-12.515999794006348 -0.7289999723434448,-12.515999794006348 C-7.372000217437744,-14.380999565124512 -14.302000045776367,-10.50100040435791 -16.173999786376953,-3.8359999656677246 C-18.03499984741211,2.8259999752044678 -14.154999732971191,9.741999626159668 -7.491000175476074,11.609000205993652z"></path></g></g><g transform="matrix(1,0,0,1,0,0)" opacity="1" style="display: block;"><g opacity="1" transform="matrix(1,0,0,1,333.0260009765625,499.6080017089844)"><path fill="rgb(60,37,254)" fill-opacity="1" d=" M22.871000289916992,0 C22.871000289916992,-6.915999889373779 17.259000778198242,-12.529000282287598 10.335000038146973,-12.529000282287598 C10.335000038146973,-12.529000282287598 -10.335000038146973,-12.529000282287598 -10.335000038146973,-12.529000282287598 C-17.250999450683594,-12.529000282287598 -22.871000289916992,-6.915999889373779 -22.871000289916992,0 C-22.871000289916992,6.921000003814697 -17.250999450683594,12.529000282287598 -10.335000038146973,12.529000282287598 C-10.335000038146973,12.529000282287598 10.335000038146973,12.529000282287598 10.335000038146973,12.529000282287598 C17.259000778198242,12.529000282287598 22.871000289916992,6.921000003814697 22.871000289916992,0z"></path></g></g><g transform="matrix(1,0,0,1,0,0)" opacity="1" style="display: block;"><g opacity="1" transform="matrix(1,0,0,1,500.406005859375,499.6090087890625)"><path fill="rgb(60,37,254)" fill-opacity="1" d=" M-201.8350067138672,-0.0010000000474974513 C-201.8350067138672,-6.916999816894531 -207.43800354003906,-12.529999732971191 -214.35899353027344,-12.529999732971191 C-214.35899353027344,-12.529999732971191 -308.2200012207031,-12.529999732971191 -308.2200012207031,-12.529999732971191 C-308.2200012207031,-12.529999732971191 -308.2200012207031,-33.97800064086914 -308.2200012207031,-33.97800064086914 C-308.2200012207031,-33.97800064086914 -63.560001373291016,-102.52200317382812 -63.560001373291016,-102.52200317382812 C-62.26599884033203,-75.40799713134766 -60.617000579833984,-44.564998626708984 -58.62099838256836,-12.529999732971191 C-58.62099838256836,-12.529999732971191 -120.0790023803711,-12.529999732971191 -120.0790023803711,-12.529999732971191 C-127,-12.529999732971191 -132.6060028076172,-6.916999816894531 -132.6060028076172,-0.0010000000474974513 C-132.6060028076172,6.920000076293945 -127,12.529000282287598 -120.0790023803711,12.529000282287598 C-120.0790023803711,12.529000282287598 -56.98899841308594,12.529000282287598 -56.98899841308594,12.529000282287598 C-56.43299865722656,20.805999755859375 -55.84600067138672,29.107999801635742 -55.24700164794922,37.4109992980957 C-51.76499938964844,84.88800048828125 -47.957000732421875,125.76499938964844 -43.887001037597656,159.58099365234375 C-43.887001037597656,159.58099365234375 -134.0290069580078,214.10899353027344 -134.0290069580078,214.10899353027344 C-138.3179931640625,216.70399475097656 -140.6479949951172,221.59500122070312 -139.9530029296875,226.56399536132812 C-139.9530029296875,226.56399536132812 -135.07899475097656,261.5570068359375 -135.07899475097656,261.5570068359375 C-134.60400390625,264.92401123046875 -132.7969970703125,267.9549865722656 -130.04800415039062,269.9540100097656 C-127.88600158691406,271.52398681640625 -125.3030014038086,272.3559875488281 -122.6719970703125,272.3559875488281 C-121.9530029296875,272.3559875488281 -121.23400115966797,272.2980041503906 -120.5199966430664,272.1759948730469 C-120.5199966430664,272.1759948730469 -26.506000518798828,255.75 -26.506000518798828,255.75 C-19.555999755859375,277.5559997558594 -11.395999908447266,286.23199462890625 0.0020000000949949026,286.23199462890625 C11.385000228881836,286.23199462890625 19.55299949645996,277.5559997558594 26.50200080871582,255.75 C26.50200080871582,255.75 120.50499725341797,272.1759948730469 120.50499725341797,272.1759948730469 C121.22799682617188,272.2980041503906 121.9469985961914,272.3559875488281 122.66100311279297,272.3559875488281 C125.30000305175781,272.3559875488281 127.88600158691406,271.52398681640625 130.03799438476562,269.9540100097656 C132.78399658203125,267.9549865722656 134.60299682617188,264.92401123046875 135.0679931640625,261.5570068359375 C135.0679931640625,261.5570068359375 139.95199584960938,226.56399536132812 139.95199584960938,226.56399536132812 C140.64599609375,221.59500122070312 138.32000732421875,216.70399475097656 134.0279998779297,214.10899353027344 C134.0279998779297,214.10899353027344 43.87699890136719,159.58099365234375 43.87699890136719,159.58099365234375 C47.952999114990234,125.76499938964844 51.75400161743164,84.88800048828125 55.233001708984375,37.4109992980957 C55.845001220703125,29.107999801635742 56.415000915527344,20.805999755859375 56.983001708984375,12.529000282287598 C56.983001708984375,12.529000282287598 320.7430114746094,12.529000282287598 320.7430114746094,12.529000282287598 C327.66400146484375,12.529000282287598 333.2770080566406,6.920000076293945 333.2770080566406,-0.0010000000474974513 C333.2770080566406,-0.0010000000474974513 333.2770080566406,-43.47800064086914 333.2770080566406,-43.47800064086914 C333.2770080566406,-49.09700012207031 329.5360107421875,-54.027000427246094 324.1199951171875,-55.54199981689453 C324.1199951171875,-55.54199981689453 247.31199645996094,-77.06199645996094 247.31199645996094,-77.06199645996094 C240.66000366210938,-78.927001953125 233.73699951171875,-75.04399871826172 231.8780059814453,-68.375 C230.00599670410156,-61.7130012512207 233.89500427246094,-54.79899978637695 240.56100463867188,-52.92900085449219 C240.56100463867188,-52.92900085449219 308.2170104980469,-33.97800064086914 308.2170104980469,-33.97800064086914 C308.2170104980469,-33.97800064086914 308.2170104980469,-12.529999732971191 308.2170104980469,-12.529999732971191 C308.2170104980469,-12.529999732971191 58.61000061035156,-12.529999732971191 58.61000061035156,-12.529999732971191 C60.61899948120117,-44.564998626708984 62.25299835205078,-75.40799713134766 63.560001373291016,-102.52200317382812 C63.560001373291016,-102.52200317382812 160.74899291992188,-75.29100036621094 160.74899291992188,-75.29100036621094 C161.8800048828125,-74.97699737548828 163.01400756835938,-74.8239974975586 164.13499450683594,-74.8239974975586 C169.61300659179688,-74.8239974975586 174.64300537109375,-78.44300079345703 176.19400024414062,-83.9729995727539 C178.06100463867188,-90.63800048828125 174.177001953125,-97.55400085449219 167.51199340820312,-99.4209976196289 C167.51199340820312,-99.4209976196289 64.73500061035156,-128.21299743652344 64.73500061035156,-128.21299743652344 C66.64299774169922,-171.08099365234375 67.52999877929688,-199.7530059814453 67.5469970703125,-200.3350067138672 C67.5469970703125,-200.3350067138672 67.5469970703125,-200.71400451660156 67.5469970703125,-200.71400451660156 C67.5469970703125,-247.86700439453125 37.24800109863281,-286.23199462890625 0.0020000000949949026,-286.23199462890625 C-37.25600051879883,-286.23199462890625 -67.55500030517578,-247.86700439453125 -67.55500030517578,-200.71400451660156 C-67.55500030517578,-200.71400451660156 -67.55500030517578,-200.3350067138672 -67.55500030517578,-200.3350067138672 C-67.54100036621094,-199.7530059814453 -66.65599822998047,-171.08099365234375 -64.74700164794922,-128.21299743652344 C-64.74700164794922,-128.21299743652344 -324.13299560546875,-55.54199981689453 -324.13299560546875,-55.54199981689453 C-329.5459899902344,-54.027000427246094 -333.2770080566406,-49.09700012207031 -333.2770080566406,-43.47800064086914 C-333.2770080566406,-43.47800064086914 -333.2770080566406,-0.0010000000474974513 -333.2770080566406,-0.0010000000474974513 C-333.2770080566406,6.920000076293945 -327.6719970703125,12.529000282287598 -320.75299072265625,12.529000282287598 C-320.75299072265625,12.529000282287598 -214.35899353027344,12.529000282287598 -214.35899353027344,12.529000282287598 C-207.43800354003906,12.529000282287598 -201.8350067138672,6.920000076293945 -201.8350067138672,-0.0010000000474974513z M113.99800109863281,231.2729949951172 C113.99800109863281,231.2729949951172 112.04299926757812,245.25100708007812 112.04299926757812,245.25100708007812 C112.04299926757812,245.25100708007812 32.69900131225586,231.39500427246094 32.69900131225586,231.39500427246094 C34.53499984741211,222.66400146484375 36.31800079345703,212.75799560546875 38.09400177001953,201.53900146484375 C38.85599899291992,196.8209991455078 39.595001220703125,191.8719940185547 40.323001861572266,186.7169952392578 C40.323001861572266,186.7169952392578 113.99800109863281,231.2729949951172 113.99800109863281,231.2729949951172z M0.0020000000949949026,-261.17498779296875 C22.98900032043457,-261.17498779296875 42.42499923706055,-233.593994140625 42.49599838256836,-200.8979949951172 C42.33399963378906,-195.63800048828125 38.9370002746582,-88.45999908447266 31.25,21.45199966430664 C22.226999282836914,150.43699645996094 12.390000343322754,210.52699279785156 5.328999996185303,238.4949951171875 C5.267000198364258,238.77099609375 5.1539998054504395,239.01800537109375 5.099999904632568,239.29100036621094 C5.099999904632568,239.29100036621094 5.099999904632568,239.4080047607422 5.099999904632568,239.4080047607422 C3.1579999923706055,246.98399353027344 1.434999942779541,252.11900329589844 0.0020000000949949026,255.5850067138672 C-1.434000015258789,252.11900329589844 -3.1589999198913574,246.98399353027344 -5.105000019073486,239.41299438476562 C-5.114999771118164,239.3699951171875 -5.105000019073486,239.33200073242188 -5.114999771118164,239.29100036621094 C-5.166999816894531,238.99600219726562 -5.2769999504089355,238.73800659179688 -5.3420000076293945,238.4550018310547 C-12.404000282287598,210.46800231933594 -22.239999771118164,150.39599609375 -31.250999450683594,21.51799964904785 C-38.93899917602539,-88.4000015258789 -42.334999084472656,-195.63600158691406 -42.49800109863281,-200.9010009765625 C-42.428001403808594,-233.593994140625 -22.996999740600586,-261.17498779296875 0.0020000000949949026,-261.17498779296875z M-40.33599853515625,186.7169952392578 C-39.595001220703125,191.8719940185547 -38.856998443603516,196.8249969482422 -38.106998443603516,201.53900146484375 C-36.32699966430664,212.75799560546875 -34.5359992980957,222.66400146484375 -32.70800018310547,231.39500427246094 C-32.70800018310547,231.39500427246094 -112.05799865722656,245.25100708007812 -112.05799865722656,245.25100708007812 C-112.05799865722656,245.25100708007812 -113.9990005493164,231.2729949951172 -113.9990005493164,231.2729949951172 C-113.9990005493164,231.2729949951172 -40.33599853515625,186.7169952392578 -40.33599853515625,186.7169952392578z"></path></g></g><g clip-path="url(#__lottie_element_373)" style="display: block;" transform="matrix(1,0,0,1,0,280)" opacity="3.005806590294924e-8"><g transform="matrix(1,0,0,1,0,0)" opacity="1" style="display: block;"><g opacity="1" transform="matrix(1,0,0,1,251.0709991455078,565.8070068359375)"><path fill="rgb(60,37,254)" fill-opacity="1" d=" M0.0020000000949949026,-34.45399856567383 C-6.919000148773193,-34.45399856567383 -12.522000312805176,-28.85099983215332 -12.522000312805176,-21.93000030517578 C-12.522000312805176,-21.93000030517578 -12.522000312805176,21.930999755859375 -12.522000312805176,21.930999755859375 C-12.522000312805176,28.844999313354492 -6.919000148773193,34.45399856567383 0.0020000000949949026,34.45399856567383 C6.922999858856201,34.45399856567383 12.522000312805176,28.844999313354492 12.522000312805176,21.930999755859375 C12.522000312805176,21.930999755859375 12.522000312805176,-21.93000030517578 12.522000312805176,-21.93000030517578 C12.522000312805176,-28.85099983215332 6.922999858856201,-34.45399856567383 0.0020000000949949026,-34.45399856567383z"></path></g></g><g transform="matrix(1,0,0,1,0,0)" opacity="1" style="display: block;"><g opacity="1" transform="matrix(1,0,0,1,251.0709991455078,627.166015625)"><path fill="rgb(60,37,254)" fill-opacity="1" d=" M0.0020000000949949026,-15.690999984741211 C-6.919000148773193,-15.690999984741211 -12.522000312805176,-10.081000328063965 -12.522000312805176,-3.1610000133514404 C-12.522000312805176,-3.1610000133514404 -12.522000312805176,3.1619999408721924 -12.522000312805176,3.1619999408721924 C-12.522000312805176,10.083000183105469 -6.919000148773193,15.690999984741211 0.0020000000949949026,15.690999984741211 C6.922999858856201,15.690999984741211 12.522000312805176,10.083000183105469 12.522000312805176,3.1619999408721924 C12.522000312805176,3.1619999408721924 12.522000312805176,-3.1610000133514404 12.522000312805176,-3.1610000133514404 C12.522000312805176,-10.081000328063965 6.922999858856201,-15.690999984741211 0.0020000000949949026,-15.690999984741211z"></path></g></g></g><g clip-path="url(#__lottie_element_363)" style="display: block;" transform="matrix(1,0,0,1,0,280)" opacity="1.2022416782997426e-7"><g transform="matrix(1,0,0,1,0,0)" opacity="1" style="display: block;"><g opacity="1" transform="matrix(1,0,0,1,664.5380249023438,576.4580078125)"><path fill="rgb(60,37,254)" fill-opacity="1" d=" M12.531999588012695,-32.58100128173828 C12.531999588012695,-39.50299835205078 6.914999961853027,-45.104000091552734 -0.0020000000949949026,-45.104000091552734 C-6.925000190734863,-45.104000091552734 -12.532999992370605,-39.50299835205078 -12.532999992370605,-32.58100128173828 C-12.532999992370605,-32.58100128173828 -12.532999992370605,32.57699966430664 -12.532999992370605,32.57699966430664 C-12.532999992370605,39.49599838256836 -6.925000190734863,45.104000091552734 -0.0020000000949949026,45.104000091552734 C6.914999961853027,45.104000091552734 12.531999588012695,39.49599838256836 12.531999588012695,32.57699966430664 C12.531999588012695,32.57699966430664 12.531999588012695,-32.58100128173828 12.531999588012695,-32.58100128173828z"></path></g></g><g transform="matrix(1,0,0,1,0,0)" opacity="1" style="display: block;"><g opacity="1" transform="matrix(1,0,0,1,664.5380249023438,655.5079956054688)"><path fill="rgb(60,37,254)" fill-opacity="1" d=" M-0.0020000000949949026,-22.736000061035156 C-6.925000190734863,-22.736000061035156 -12.532999992370605,-17.121999740600586 -12.532999992370605,-10.206000328063965 C-12.532999992370605,-10.206000328063965 -12.532999992370605,10.204000473022461 -12.532999992370605,10.204000473022461 C-12.532999992370605,17.12700080871582 -6.925000190734863,22.736000061035156 -0.0020000000949949026,22.736000061035156 C6.914999961853027,22.736000061035156 12.531999588012695,17.12700080871582 12.531999588012695,10.204000473022461 C12.531999588012695,10.204000473022461 12.531999588012695,-10.206000328063965 12.531999588012695,-10.206000328063965 C12.531999588012695,-17.121999740600586 6.914999961853027,-22.736000061035156 -0.0020000000949949026,-22.736000061035156z"></path></g></g></g><g clip-path="url(#__lottie_element_353)" style="display: block;" transform="matrix(1,0,0,1,0,280)" opacity="2.7048616104252686e-7"><g transform="matrix(1,0,0,1,0,0)" opacity="1" style="display: block;"><g opacity="1" transform="matrix(1,0,0,1,336.27099609375,576.4580078125)"><path fill="rgb(60,37,254)" fill-opacity="1" d=" M12.529999732971191,-32.58100128173828 C12.529999732971191,-39.50299835205078 6.918000221252441,-45.104000091552734 -0.004000000189989805,-45.104000091552734 C-6.923999786376953,-45.104000091552734 -12.529999732971191,-39.50299835205078 -12.529999732971191,-32.58100128173828 C-12.529999732971191,-32.58100128173828 -12.529999732971191,32.57699966430664 -12.529999732971191,32.57699966430664 C-12.529999732971191,39.49599838256836 -6.923999786376953,45.104000091552734 -0.004000000189989805,45.104000091552734 C6.918000221252441,45.104000091552734 12.529999732971191,39.49599838256836 12.529999732971191,32.57699966430664 C12.529999732971191,32.57699966430664 12.529999732971191,-32.58100128173828 12.529999732971191,-32.58100128173828z"></path></g></g><g transform="matrix(1,0,0,1,0,0)" opacity="1" style="display: block;"><g opacity="1" transform="matrix(1,0,0,1,336.2720031738281,655.5079956054688)"><path fill="rgb(60,37,254)" fill-opacity="1" d=" M-0.004000000189989805,-22.736000061035156 C-6.923999786376953,-22.736000061035156 -12.529999732971191,-17.121999740600586 -12.529999732971191,-10.206000328063965 C-12.529999732971191,-10.206000328063965 -12.529999732971191,10.204000473022461 -12.529999732971191,10.204000473022461 C-12.529999732971191,17.12700080871582 -6.923999786376953,22.736000061035156 -0.004000000189989805,22.736000061035156 C6.916999816894531,22.736000061035156 12.529999732971191,17.12700080871582 12.529999732971191,10.204000473022461 C12.529999732971191,10.204000473022461 12.529999732971191,-10.206000328063965 12.529999732971191,-10.206000328063965 C12.529999732971191,-17.121999740600586 6.916999816894531,-22.736000061035156 -0.004000000189989805,-22.736000061035156z"></path></g></g></g><g clip-path="url(#__lottie_element_343)" style="display: block;" transform="matrix(1,0,0,1,0,320)" opacity="3.005806590294924e-8"><g transform="matrix(1,0,0,1,0,0)" opacity="1" style="display: block;"><g opacity="1" transform="matrix(1,0,0,1,749.7319946289062,565.8070068359375)"><path fill="rgb(60,37,254)" fill-opacity="1" d=" M12.531000137329102,-21.93000030517578 C12.531000137329102,-28.851999282836914 6.927999973297119,-34.45399856567383 0.004999999888241291,-34.45399856567383 C-6.922999858856201,-34.45399856567383 -12.531000137329102,-28.851999282836914 -12.531000137329102,-21.93000030517578 C-12.531000137329102,-21.93000030517578 -12.531000137329102,21.93000030517578 -12.531000137329102,21.93000030517578 C-12.531000137329102,28.8439998626709 -6.922999858856201,34.45399856567383 0.004999999888241291,34.45399856567383 C6.927999973297119,34.45399856567383 12.531000137329102,28.8439998626709 12.531000137329102,21.93000030517578 C12.531000137329102,21.93000030517578 12.531000137329102,-21.93000030517578 12.531000137329102,-21.93000030517578z"></path></g></g><g transform="matrix(1,0,0,1,0,0)" opacity="1" style="display: block;"><g opacity="1" transform="matrix(1,0,0,1,749.7310180664062,627.166015625)"><path fill="rgb(60,37,254)" fill-opacity="1" d=" M0.004999999888241291,-15.690999984741211 C-6.922999858856201,-15.690999984741211 -12.531000137329102,-10.081000328063965 -12.531000137329102,-3.1610000133514404 C-12.531000137329102,-3.1610000133514404 -12.531000137329102,3.1619999408721924 -12.531000137329102,3.1619999408721924 C-12.531000137329102,10.083000183105469 -6.922999858856201,15.690999984741211 0.004999999888241291,15.690999984741211 C6.928999900817871,15.690999984741211 12.531000137329102,10.083000183105469 12.531000137329102,3.1619999408721924 C12.531000137329102,3.1619999408721924 12.531000137329102,-3.1610000133514404 12.531000137329102,-3.1610000133514404 C12.531000137329102,-10.081000328063965 6.928999900817871,-15.690999984741211 0.004999999888241291,-15.690999984741211z"></path></g></g></g><g clip-path="url(#__lottie_element_333)" style="display: block;" transform="matrix(1,0,0,1,0,207.37353515625)" opacity="0.7406864361976596"><g transform="matrix(1,0,0,1,0,0)" opacity="1" style="display: block;"><g opacity="1" transform="matrix(1,0,0,1,251.0709991455078,565.8070068359375)"><path fill="rgb(60,37,254)" fill-opacity="1" d=" M0.0020000000949949026,-34.45399856567383 C-6.919000148773193,-34.45399856567383 -12.522000312805176,-28.85099983215332 -12.522000312805176,-21.93000030517578 C-12.522000312805176,-21.93000030517578 -12.522000312805176,21.930999755859375 -12.522000312805176,21.930999755859375 C-12.522000312805176,28.844999313354492 -6.919000148773193,34.45399856567383 0.0020000000949949026,34.45399856567383 C6.922999858856201,34.45399856567383 12.522000312805176,28.844999313354492 12.522000312805176,21.930999755859375 C12.522000312805176,21.930999755859375 12.522000312805176,-21.93000030517578 12.522000312805176,-21.93000030517578 C12.522000312805176,-28.85099983215332 6.922999858856201,-34.45399856567383 0.0020000000949949026,-34.45399856567383z"></path></g></g><g transform="matrix(1,0,0,1,0,0)" opacity="1" style="display: block;"><g opacity="1" transform="matrix(1,0,0,1,251.0709991455078,627.166015625)"><path fill="rgb(60,37,254)" fill-opacity="1" d=" M0.0020000000949949026,-15.690999984741211 C-6.919000148773193,-15.690999984741211 -12.522000312805176,-10.081000328063965 -12.522000312805176,-3.1610000133514404 C-12.522000312805176,-3.1610000133514404 -12.522000312805176,3.1619999408721924 -12.522000312805176,3.1619999408721924 C-12.522000312805176,10.083000183105469 -6.919000148773193,15.690999984741211 0.0020000000949949026,15.690999984741211 C6.922999858856201,15.690999984741211 12.522000312805176,10.083000183105469 12.522000312805176,3.1619999408721924 C12.522000312805176,3.1619999408721924 12.522000312805176,-3.1610000133514404 12.522000312805176,-3.1610000133514404 C12.522000312805176,-10.081000328063965 6.922999858856201,-15.690999984741211 0.0020000000949949026,-15.690999984741211z"></path></g></g></g><g clip-path="url(#__lottie_element_323)" style="display: block;" transform="matrix(1,0,0,1,0,20.75848388671875)" opacity="0.2593135638023403"><g transform="matrix(1,0,0,1,0,0)" opacity="1" style="display: block;"><g opacity="1" transform="matrix(1,0,0,1,664.5380249023438,576.4580078125)"><path fill="rgb(60,37,254)" fill-opacity="1" d=" M12.531999588012695,-32.58100128173828 C12.531999588012695,-39.50299835205078 6.914999961853027,-45.104000091552734 -0.0020000000949949026,-45.104000091552734 C-6.925000190734863,-45.104000091552734 -12.532999992370605,-39.50299835205078 -12.532999992370605,-32.58100128173828 C-12.532999992370605,-32.58100128173828 -12.532999992370605,32.57699966430664 -12.532999992370605,32.57699966430664 C-12.532999992370605,39.49599838256836 -6.925000190734863,45.104000091552734 -0.0020000000949949026,45.104000091552734 C6.914999961853027,45.104000091552734 12.531999588012695,39.49599838256836 12.531999588012695,32.57699966430664 C12.531999588012695,32.57699966430664 12.531999588012695,-32.58100128173828 12.531999588012695,-32.58100128173828z"></path></g></g><g transform="matrix(1,0,0,1,0,0)" opacity="1" style="display: block;"><g opacity="1" transform="matrix(1,0,0,1,664.5380249023438,655.5079956054688)"><path fill="rgb(60,37,254)" fill-opacity="1" d=" M-0.0020000000949949026,-22.736000061035156 C-6.925000190734863,-22.736000061035156 -12.532999992370605,-17.121999740600586 -12.532999992370605,-10.206000328063965 C-12.532999992370605,-10.206000328063965 -12.532999992370605,10.204000473022461 -12.532999992370605,10.204000473022461 C-12.532999992370605,17.12700080871582 -6.925000190734863,22.736000061035156 -0.0020000000949949026,22.736000061035156 C6.914999961853027,22.736000061035156 12.531999588012695,17.12700080871582 12.531999588012695,10.204000473022461 C12.531999588012695,10.204000473022461 12.531999588012695,-10.206000328063965 12.531999588012695,-10.206000328063965 C12.531999588012695,-17.121999740600586 6.914999961853027,-22.736000061035156 -0.0020000000949949026,-22.736000061035156z"></path></g></g></g><g clip-path="url(#__lottie_element_313)" style="display: none;" transform="matrix(1,0,0,1,0,280)" opacity="0"><g transform="matrix(1,0,0,1,0,0)" opacity="1" style="display: block;"><g opacity="1" transform="matrix(1,0,0,1,336.27099609375,576.4580078125)"><path fill="rgb(60,37,254)" fill-opacity="1" d=" M12.529999732971191,-32.58100128173828 C12.529999732971191,-39.50299835205078 6.918000221252441,-45.104000091552734 -0.004000000189989805,-45.104000091552734 C-6.923999786376953,-45.104000091552734 -12.529999732971191,-39.50299835205078 -12.529999732971191,-32.58100128173828 C-12.529999732971191,-32.58100128173828 -12.529999732971191,32.57699966430664 -12.529999732971191,32.57699966430664 C-12.529999732971191,39.49599838256836 -6.923999786376953,45.104000091552734 -0.004000000189989805,45.104000091552734 C6.918000221252441,45.104000091552734 12.529999732971191,39.49599838256836 12.529999732971191,32.57699966430664 C12.529999732971191,32.57699966430664 12.529999732971191,-32.58100128173828 12.529999732971191,-32.58100128173828z"></path></g></g><g transform="matrix(1,0,0,1,0,0)" opacity="1" style="display: block;"><g opacity="1" transform="matrix(1,0,0,1,336.2720031738281,655.5079956054688)"><path fill="rgb(60,37,254)" fill-opacity="1" d=" M-0.004000000189989805,-22.736000061035156 C-6.923999786376953,-22.736000061035156 -12.529999732971191,-17.121999740600586 -12.529999732971191,-10.206000328063965 C-12.529999732971191,-10.206000328063965 -12.529999732971191,10.204000473022461 -12.529999732971191,10.204000473022461 C-12.529999732971191,17.12700080871582 -6.923999786376953,22.736000061035156 -0.004000000189989805,22.736000061035156 C6.916999816894531,22.736000061035156 12.529999732971191,17.12700080871582 12.529999732971191,10.204000473022461 C12.529999732971191,10.204000473022461 12.529999732971191,-10.206000328063965 12.529999732971191,-10.206000328063965 C12.529999732971191,-17.121999740600586 6.916999816894531,-22.736000061035156 -0.004000000189989805,-22.736000061035156z"></path></g></g></g><g clip-path="url(#__lottie_element_303)" style="display: block;" transform="matrix(1,0,0,1,0,236.99835205078125)" opacity="0.7406864361976596"><g transform="matrix(1,0,0,1,0,0)" opacity="1" style="display: block;"><g opacity="1" transform="matrix(1,0,0,1,749.7319946289062,565.8070068359375)"><path fill="rgb(60,37,254)" fill-opacity="1" d=" M12.531000137329102,-21.93000030517578 C12.531000137329102,-28.851999282836914 6.927999973297119,-34.45399856567383 0.004999999888241291,-34.45399856567383 C-6.922999858856201,-34.45399856567383 -12.531000137329102,-28.851999282836914 -12.531000137329102,-21.93000030517578 C-12.531000137329102,-21.93000030517578 -12.531000137329102,21.93000030517578 -12.531000137329102,21.93000030517578 C-12.531000137329102,28.8439998626709 -6.922999858856201,34.45399856567383 0.004999999888241291,34.45399856567383 C6.927999973297119,34.45399856567383 12.531000137329102,28.8439998626709 12.531000137329102,21.93000030517578 C12.531000137329102,21.93000030517578 12.531000137329102,-21.93000030517578 12.531000137329102,-21.93000030517578z"></path></g></g><g transform="matrix(1,0,0,1,0,0)" opacity="1" style="display: block;"><g opacity="1" transform="matrix(1,0,0,1,749.7310180664062,627.166015625)"><path fill="rgb(60,37,254)" fill-opacity="1" d=" M0.004999999888241291,-15.690999984741211 C-6.922999858856201,-15.690999984741211 -12.531000137329102,-10.081000328063965 -12.531000137329102,-3.1610000133514404 C-12.531000137329102,-3.1610000133514404 -12.531000137329102,3.1619999408721924 -12.531000137329102,3.1619999408721924 C-12.531000137329102,10.083000183105469 -6.922999858856201,15.690999984741211 0.004999999888241291,15.690999984741211 C6.928999900817871,15.690999984741211 12.531000137329102,10.083000183105469 12.531000137329102,3.1619999408721924 C12.531000137329102,3.1619999408721924 12.531000137329102,-3.1610000133514404 12.531000137329102,-3.1610000133514404 C12.531000137329102,-10.081000328063965 6.928999900817871,-15.690999984741211 0.004999999888241291,-15.690999984741211z"></path></g></g></g><g clip-path="url(#__lottie_element_293)" style="display: none;" transform="matrix(1,0,0,1,0,280)" opacity="0"><g transform="matrix(1,0,0,1,0,0)" opacity="1" style="display: block;"><g opacity="1" transform="matrix(1,0,0,1,251.0709991455078,565.8070068359375)"><path fill="rgb(60,37,254)" fill-opacity="1" d=" M0.0020000000949949026,-34.45399856567383 C-6.919000148773193,-34.45399856567383 -12.522000312805176,-28.85099983215332 -12.522000312805176,-21.93000030517578 C-12.522000312805176,-21.93000030517578 -12.522000312805176,21.930999755859375 -12.522000312805176,21.930999755859375 C-12.522000312805176,28.844999313354492 -6.919000148773193,34.45399856567383 0.0020000000949949026,34.45399856567383 C6.922999858856201,34.45399856567383 12.522000312805176,28.844999313354492 12.522000312805176,21.930999755859375 C12.522000312805176,21.930999755859375 12.522000312805176,-21.93000030517578 12.522000312805176,-21.93000030517578 C12.522000312805176,-28.85099983215332 6.922999858856201,-34.45399856567383 0.0020000000949949026,-34.45399856567383z"></path></g></g><g transform="matrix(1,0,0,1,0,0)" opacity="1" style="display: block;"><g opacity="1" transform="matrix(1,0,0,1,251.0709991455078,627.166015625)"><path fill="rgb(60,37,254)" fill-opacity="1" d=" M0.0020000000949949026,-15.690999984741211 C-6.919000148773193,-15.690999984741211 -12.522000312805176,-10.081000328063965 -12.522000312805176,-3.1610000133514404 C-12.522000312805176,-3.1610000133514404 -12.522000312805176,3.1619999408721924 -12.522000312805176,3.1619999408721924 C-12.522000312805176,10.083000183105469 -6.919000148773193,15.690999984741211 0.0020000000949949026,15.690999984741211 C6.922999858856201,15.690999984741211 12.522000312805176,10.083000183105469 12.522000312805176,3.1619999408721924 C12.522000312805176,3.1619999408721924 12.522000312805176,-3.1610000133514404 12.522000312805176,-3.1610000133514404 C12.522000312805176,-10.081000328063965 6.922999858856201,-15.690999984741211 0.0020000000949949026,-15.690999984741211z"></path></g></g></g><g clip-path="url(#__lottie_element_283)" style="display: none;" transform="matrix(1,0,0,1,0,280)" opacity="1.2022416782997426e-7"><g transform="matrix(1,0,0,1,0,0)" opacity="1" style="display: block;"><g opacity="1" transform="matrix(1,0,0,1,664.5380249023438,576.4580078125)"><path fill="rgb(60,37,254)" fill-opacity="1" d=" M12.531999588012695,-32.58100128173828 C12.531999588012695,-39.50299835205078 6.914999961853027,-45.104000091552734 -0.0020000000949949026,-45.104000091552734 C-6.925000190734863,-45.104000091552734 -12.532999992370605,-39.50299835205078 -12.532999992370605,-32.58100128173828 C-12.532999992370605,-32.58100128173828 -12.532999992370605,32.57699966430664 -12.532999992370605,32.57699966430664 C-12.532999992370605,39.49599838256836 -6.925000190734863,45.104000091552734 -0.0020000000949949026,45.104000091552734 C6.914999961853027,45.104000091552734 12.531999588012695,39.49599838256836 12.531999588012695,32.57699966430664 C12.531999588012695,32.57699966430664 12.531999588012695,-32.58100128173828 12.531999588012695,-32.58100128173828z"></path></g></g><g transform="matrix(1,0,0,1,0,0)" opacity="1" style="display: block;"><g opacity="1" transform="matrix(1,0,0,1,664.5380249023438,655.5079956054688)"><path fill="rgb(60,37,254)" fill-opacity="1" d=" M-0.0020000000949949026,-22.736000061035156 C-6.925000190734863,-22.736000061035156 -12.532999992370605,-17.121999740600586 -12.532999992370605,-10.206000328063965 C-12.532999992370605,-10.206000328063965 -12.532999992370605,10.204000473022461 -12.532999992370605,10.204000473022461 C-12.532999992370605,17.12700080871582 -6.925000190734863,22.736000061035156 -0.0020000000949949026,22.736000061035156 C6.914999961853027,22.736000061035156 12.531999588012695,17.12700080871582 12.531999588012695,10.204000473022461 C12.531999588012695,10.204000473022461 12.531999588012695,-10.206000328063965 12.531999588012695,-10.206000328063965 C12.531999588012695,-17.121999740600586 6.914999961853027,-22.736000061035156 -0.0020000000949949026,-22.736000061035156z"></path></g></g></g><g clip-path="url(#__lottie_element_273)" style="display: none;" transform="matrix(1,0,0,1,0,280)" opacity="0"><g transform="matrix(1,0,0,1,0,0)" opacity="1" style="display: block;"><g opacity="1" transform="matrix(1,0,0,1,336.27099609375,576.4580078125)"><path fill="rgb(60,37,254)" fill-opacity="1" d=" M12.529999732971191,-32.58100128173828 C12.529999732971191,-39.50299835205078 6.918000221252441,-45.104000091552734 -0.004000000189989805,-45.104000091552734 C-6.923999786376953,-45.104000091552734 -12.529999732971191,-39.50299835205078 -12.529999732971191,-32.58100128173828 C-12.529999732971191,-32.58100128173828 -12.529999732971191,32.57699966430664 -12.529999732971191,32.57699966430664 C-12.529999732971191,39.49599838256836 -6.923999786376953,45.104000091552734 -0.004000000189989805,45.104000091552734 C6.918000221252441,45.104000091552734 12.529999732971191,39.49599838256836 12.529999732971191,32.57699966430664 C12.529999732971191,32.57699966430664 12.529999732971191,-32.58100128173828 12.529999732971191,-32.58100128173828z"></path></g></g><g transform="matrix(1,0,0,1,0,0)" opacity="1" style="display: block;"><g opacity="1" transform="matrix(1,0,0,1,336.2720031738281,655.5079956054688)"><path fill="rgb(60,37,254)" fill-opacity="1" d=" M-0.004000000189989805,-22.736000061035156 C-6.923999786376953,-22.736000061035156 -12.529999732971191,-17.121999740600586 -12.529999732971191,-10.206000328063965 C-12.529999732971191,-10.206000328063965 -12.529999732971191,10.204000473022461 -12.529999732971191,10.204000473022461 C-12.529999732971191,17.12700080871582 -6.923999786376953,22.736000061035156 -0.004000000189989805,22.736000061035156 C6.916999816894531,22.736000061035156 12.529999732971191,17.12700080871582 12.529999732971191,10.204000473022461 C12.529999732971191,10.204000473022461 12.529999732971191,-10.206000328063965 12.529999732971191,-10.206000328063965 C12.529999732971191,-17.121999740600586 6.916999816894531,-22.736000061035156 -0.004000000189989805,-22.736000061035156z"></path></g></g></g><g clip-path="url(#__lottie_element_263)" style="display: none;" transform="matrix(1,0,0,1,0,320)" opacity="0"><g transform="matrix(1,0,0,1,0,0)" opacity="1" style="display: block;"><g opacity="1" transform="matrix(1,0,0,1,749.7319946289062,565.8070068359375)"><path fill="rgb(60,37,254)" fill-opacity="1" d=" M12.531000137329102,-21.93000030517578 C12.531000137329102,-28.851999282836914 6.927999973297119,-34.45399856567383 0.004999999888241291,-34.45399856567383 C-6.922999858856201,-34.45399856567383 -12.531000137329102,-28.851999282836914 -12.531000137329102,-21.93000030517578 C-12.531000137329102,-21.93000030517578 -12.531000137329102,21.93000030517578 -12.531000137329102,21.93000030517578 C-12.531000137329102,28.8439998626709 -6.922999858856201,34.45399856567383 0.004999999888241291,34.45399856567383 C6.927999973297119,34.45399856567383 12.531000137329102,28.8439998626709 12.531000137329102,21.93000030517578 C12.531000137329102,21.93000030517578 12.531000137329102,-21.93000030517578 12.531000137329102,-21.93000030517578z"></path></g></g><g transform="matrix(1,0,0,1,0,0)" opacity="1" style="display: block;"><g opacity="1" transform="matrix(1,0,0,1,749.7310180664062,627.166015625)"><path fill="rgb(60,37,254)" fill-opacity="1" d=" M0.004999999888241291,-15.690999984741211 C-6.922999858856201,-15.690999984741211 -12.531000137329102,-10.081000328063965 -12.531000137329102,-3.1610000133514404 C-12.531000137329102,-3.1610000133514404 -12.531000137329102,3.1619999408721924 -12.531000137329102,3.1619999408721924 C-12.531000137329102,10.083000183105469 -6.922999858856201,15.690999984741211 0.004999999888241291,15.690999984741211 C6.928999900817871,15.690999984741211 12.531000137329102,10.083000183105469 12.531000137329102,3.1619999408721924 C12.531000137329102,3.1619999408721924 12.531000137329102,-3.1610000133514404 12.531000137329102,-3.1610000133514404 C12.531000137329102,-10.081000328063965 6.928999900817871,-15.690999984741211 0.004999999888241291,-15.690999984741211z"></path></g></g></g><g clip-path="url(#__lottie_element_253)" style="display: none;" transform="matrix(1,0,0,1,0,280)" opacity="3.0058066045057783e-8"><g transform="matrix(1,0,0,1,0,0)" opacity="1" style="display: block;"><g opacity="1" transform="matrix(1,0,0,1,251.0709991455078,565.8070068359375)"><path fill="rgb(60,37,254)" fill-opacity="1" d=" M0.0020000000949949026,-34.45399856567383 C-6.919000148773193,-34.45399856567383 -12.522000312805176,-28.85099983215332 -12.522000312805176,-21.93000030517578 C-12.522000312805176,-21.93000030517578 -12.522000312805176,21.930999755859375 -12.522000312805176,21.930999755859375 C-12.522000312805176,28.844999313354492 -6.919000148773193,34.45399856567383 0.0020000000949949026,34.45399856567383 C6.922999858856201,34.45399856567383 12.522000312805176,28.844999313354492 12.522000312805176,21.930999755859375 C12.522000312805176,21.930999755859375 12.522000312805176,-21.93000030517578 12.522000312805176,-21.93000030517578 C12.522000312805176,-28.85099983215332 6.922999858856201,-34.45399856567383 0.0020000000949949026,-34.45399856567383z"></path></g></g><g transform="matrix(1,0,0,1,0,0)" opacity="1" style="display: block;"><g opacity="1" transform="matrix(1,0,0,1,251.0709991455078,627.166015625)"><path fill="rgb(60,37,254)" fill-opacity="1" d=" M0.0020000000949949026,-15.690999984741211 C-6.919000148773193,-15.690999984741211 -12.522000312805176,-10.081000328063965 -12.522000312805176,-3.1610000133514404 C-12.522000312805176,-3.1610000133514404 -12.522000312805176,3.1619999408721924 -12.522000312805176,3.1619999408721924 C-12.522000312805176,10.083000183105469 -6.919000148773193,15.690999984741211 0.0020000000949949026,15.690999984741211 C6.922999858856201,15.690999984741211 12.522000312805176,10.083000183105469 12.522000312805176,3.1619999408721924 C12.522000312805176,3.1619999408721924 12.522000312805176,-3.1610000133514404 12.522000312805176,-3.1610000133514404 C12.522000312805176,-10.081000328063965 6.922999858856201,-15.690999984741211 0.0020000000949949026,-15.690999984741211z"></path></g></g></g><g clip-path="url(#__lottie_element_243)" style="display: none;" transform="matrix(1,0,0,1,0,280)" opacity="0"><g transform="matrix(1,0,0,1,0,0)" opacity="1" style="display: block;"><g opacity="1" transform="matrix(1,0,0,1,664.5380249023438,576.4580078125)"><path fill="rgb(60,37,254)" fill-opacity="1" d=" M12.531999588012695,-32.58100128173828 C12.531999588012695,-39.50299835205078 6.914999961853027,-45.104000091552734 -0.0020000000949949026,-45.104000091552734 C-6.925000190734863,-45.104000091552734 -12.532999992370605,-39.50299835205078 -12.532999992370605,-32.58100128173828 C-12.532999992370605,-32.58100128173828 -12.532999992370605,32.57699966430664 -12.532999992370605,32.57699966430664 C-12.532999992370605,39.49599838256836 -6.925000190734863,45.104000091552734 -0.0020000000949949026,45.104000091552734 C6.914999961853027,45.104000091552734 12.531999588012695,39.49599838256836 12.531999588012695,32.57699966430664 C12.531999588012695,32.57699966430664 12.531999588012695,-32.58100128173828 12.531999588012695,-32.58100128173828z"></path></g></g><g transform="matrix(1,0,0,1,0,0)" opacity="1" style="display: block;"><g opacity="1" transform="matrix(1,0,0,1,664.5380249023438,655.5079956054688)"><path fill="rgb(60,37,254)" fill-opacity="1" d=" M-0.0020000000949949026,-22.736000061035156 C-6.925000190734863,-22.736000061035156 -12.532999992370605,-17.121999740600586 -12.532999992370605,-10.206000328063965 C-12.532999992370605,-10.206000328063965 -12.532999992370605,10.204000473022461 -12.532999992370605,10.204000473022461 C-12.532999992370605,17.12700080871582 -6.925000190734863,22.736000061035156 -0.0020000000949949026,22.736000061035156 C6.914999961853027,22.736000061035156 12.531999588012695,17.12700080871582 12.531999588012695,10.204000473022461 C12.531999588012695,10.204000473022461 12.531999588012695,-10.206000328063965 12.531999588012695,-10.206000328063965 C12.531999588012695,-17.121999740600586 6.914999961853027,-22.736000061035156 -0.0020000000949949026,-22.736000061035156z"></path></g></g></g><g clip-path="url(#__lottie_element_233)" style="display: none;" transform="matrix(1,0,0,1,0,280)" opacity="0"><g transform="matrix(1,0,0,1,0,0)" opacity="1" style="display: block;"><g opacity="1" transform="matrix(1,0,0,1,336.27099609375,576.4580078125)"><path fill="rgb(60,37,254)" fill-opacity="1" d=" M12.529999732971191,-32.58100128173828 C12.529999732971191,-39.50299835205078 6.918000221252441,-45.104000091552734 -0.004000000189989805,-45.104000091552734 C-6.923999786376953,-45.104000091552734 -12.529999732971191,-39.50299835205078 -12.529999732971191,-32.58100128173828 C-12.529999732971191,-32.58100128173828 -12.529999732971191,32.57699966430664 -12.529999732971191,32.57699966430664 C-12.529999732971191,39.49599838256836 -6.923999786376953,45.104000091552734 -0.004000000189989805,45.104000091552734 C6.918000221252441,45.104000091552734 12.529999732971191,39.49599838256836 12.529999732971191,32.57699966430664 C12.529999732971191,32.57699966430664 12.529999732971191,-32.58100128173828 12.529999732971191,-32.58100128173828z"></path></g></g><g transform="matrix(1,0,0,1,0,0)" opacity="1" style="display: block;"><g opacity="1" transform="matrix(1,0,0,1,336.2720031738281,655.5079956054688)"><path fill="rgb(60,37,254)" fill-opacity="1" d=" M-0.004000000189989805,-22.736000061035156 C-6.923999786376953,-22.736000061035156 -12.529999732971191,-17.121999740600586 -12.529999732971191,-10.206000328063965 C-12.529999732971191,-10.206000328063965 -12.529999732971191,10.204000473022461 -12.529999732971191,10.204000473022461 C-12.529999732971191,17.12700080871582 -6.923999786376953,22.736000061035156 -0.004000000189989805,22.736000061035156 C6.916999816894531,22.736000061035156 12.529999732971191,17.12700080871582 12.529999732971191,10.204000473022461 C12.529999732971191,10.204000473022461 12.529999732971191,-10.206000328063965 12.529999732971191,-10.206000328063965 C12.529999732971191,-17.121999740600586 6.916999816894531,-22.736000061035156 -0.004000000189989805,-22.736000061035156z"></path></g></g></g><g clip-path="url(#__lottie_element_223)" style="display: none;" transform="matrix(1,0,0,1,0,320)" opacity="3.0058066045057783e-8"><g transform="matrix(1,0,0,1,0,0)" opacity="1" style="display: block;"><g opacity="1" transform="matrix(1,0,0,1,749.7319946289062,565.8070068359375)"><path fill="rgb(60,37,254)" fill-opacity="1" d=" M12.531000137329102,-21.93000030517578 C12.531000137329102,-28.851999282836914 6.927999973297119,-34.45399856567383 0.004999999888241291,-34.45399856567383 C-6.922999858856201,-34.45399856567383 -12.531000137329102,-28.851999282836914 -12.531000137329102,-21.93000030517578 C-12.531000137329102,-21.93000030517578 -12.531000137329102,21.93000030517578 -12.531000137329102,21.93000030517578 C-12.531000137329102,28.8439998626709 -6.922999858856201,34.45399856567383 0.004999999888241291,34.45399856567383 C6.927999973297119,34.45399856567383 12.531000137329102,28.8439998626709 12.531000137329102,21.93000030517578 C12.531000137329102,21.93000030517578 12.531000137329102,-21.93000030517578 12.531000137329102,-21.93000030517578z"></path></g></g><g transform="matrix(1,0,0,1,0,0)" opacity="1" style="display: block;"><g opacity="1" transform="matrix(1,0,0,1,749.7310180664062,627.166015625)"><path fill="rgb(60,37,254)" fill-opacity="1" d=" M0.004999999888241291,-15.690999984741211 C-6.922999858856201,-15.690999984741211 -12.531000137329102,-10.081000328063965 -12.531000137329102,-3.1610000133514404 C-12.531000137329102,-3.1610000133514404 -12.531000137329102,3.1619999408721924 -12.531000137329102,3.1619999408721924 C-12.531000137329102,10.083000183105469 -6.922999858856201,15.690999984741211 0.004999999888241291,15.690999984741211 C6.928999900817871,15.690999984741211 12.531000137329102,10.083000183105469 12.531000137329102,3.1619999408721924 C12.531000137329102,3.1619999408721924 12.531000137329102,-3.1610000133514404 12.531000137329102,-3.1610000133514404 C12.531000137329102,-10.081000328063965 6.928999900817871,-15.690999984741211 0.004999999888241291,-15.690999984741211z"></path></g></g></g><g clip-path="url(#__lottie_element_213)" style="display: none;" transform="matrix(1,0,0,1,0,280)" opacity="0"><g transform="matrix(1,0,0,1,0,0)" opacity="1" style="display: block;"><g opacity="1" transform="matrix(1,0,0,1,251.0709991455078,565.8070068359375)"><path fill="rgb(60,37,254)" fill-opacity="1" d=" M0.0020000000949949026,-34.45399856567383 C-6.919000148773193,-34.45399856567383 -12.522000312805176,-28.85099983215332 -12.522000312805176,-21.93000030517578 C-12.522000312805176,-21.93000030517578 -12.522000312805176,21.930999755859375 -12.522000312805176,21.930999755859375 C-12.522000312805176,28.844999313354492 -6.919000148773193,34.45399856567383 0.0020000000949949026,34.45399856567383 C6.922999858856201,34.45399856567383 12.522000312805176,28.844999313354492 12.522000312805176,21.930999755859375 C12.522000312805176,21.930999755859375 12.522000312805176,-21.93000030517578 12.522000312805176,-21.93000030517578 C12.522000312805176,-28.85099983215332 6.922999858856201,-34.45399856567383 0.0020000000949949026,-34.45399856567383z"></path></g></g><g transform="matrix(1,0,0,1,0,0)" opacity="1" style="display: block;"><g opacity="1" transform="matrix(1,0,0,1,251.0709991455078,627.166015625)"><path fill="rgb(60,37,254)" fill-opacity="1" d=" M0.0020000000949949026,-15.690999984741211 C-6.919000148773193,-15.690999984741211 -12.522000312805176,-10.081000328063965 -12.522000312805176,-3.1610000133514404 C-12.522000312805176,-3.1610000133514404 -12.522000312805176,3.1619999408721924 -12.522000312805176,3.1619999408721924 C-12.522000312805176,10.083000183105469 -6.919000148773193,15.690999984741211 0.0020000000949949026,15.690999984741211 C6.922999858856201,15.690999984741211 12.522000312805176,10.083000183105469 12.522000312805176,3.1619999408721924 C12.522000312805176,3.1619999408721924 12.522000312805176,-3.1610000133514404 12.522000312805176,-3.1610000133514404 C12.522000312805176,-10.081000328063965 6.922999858856201,-15.690999984741211 0.0020000000949949026,-15.690999984741211z"></path></g></g></g><g clip-path="url(#__lottie_element_203)" style="display: none;" transform="matrix(1,0,0,1,0,320)" opacity="0"><g transform="matrix(1,0,0,1,0,0)" opacity="1" style="display: block;"><g opacity="1" transform="matrix(1,0,0,1,749.7319946289062,565.8070068359375)"><path fill="rgb(60,37,254)" fill-opacity="1" d=" M12.531000137329102,-21.93000030517578 C12.531000137329102,-28.851999282836914 6.927999973297119,-34.45399856567383 0.004999999888241291,-34.45399856567383 C-6.922999858856201,-34.45399856567383 -12.531000137329102,-28.851999282836914 -12.531000137329102,-21.93000030517578 C-12.531000137329102,-21.93000030517578 -12.531000137329102,21.93000030517578 -12.531000137329102,21.93000030517578 C-12.531000137329102,28.8439998626709 -6.922999858856201,34.45399856567383 0.004999999888241291,34.45399856567383 C6.927999973297119,34.45399856567383 12.531000137329102,28.8439998626709 12.531000137329102,21.93000030517578 C12.531000137329102,21.93000030517578 12.531000137329102,-21.93000030517578 12.531000137329102,-21.93000030517578z"></path></g></g><g transform="matrix(1,0,0,1,0,0)" opacity="1" style="display: block;"><g opacity="1" transform="matrix(1,0,0,1,749.7310180664062,627.166015625)"><path fill="rgb(60,37,254)" fill-opacity="1" d=" M0.004999999888241291,-15.690999984741211 C-6.922999858856201,-15.690999984741211 -12.531000137329102,-10.081000328063965 -12.531000137329102,-3.1610000133514404 C-12.531000137329102,-3.1610000133514404 -12.531000137329102,3.1619999408721924 -12.531000137329102,3.1619999408721924 C-12.531000137329102,10.083000183105469 -6.922999858856201,15.690999984741211 0.004999999888241291,15.690999984741211 C6.928999900817871,15.690999984741211 12.531000137329102,10.083000183105469 12.531000137329102,3.1619999408721924 C12.531000137329102,3.1619999408721924 12.531000137329102,-3.1610000133514404 12.531000137329102,-3.1610000133514404 C12.531000137329102,-10.081000328063965 6.928999900817871,-15.690999984741211 0.004999999888241291,-15.690999984741211z"></path></g></g></g></g></g></svg>