<svg xmlns="http://www.w3.org/2000/svg" xmlns:xlink="http://www.w3.org/1999/xlink" viewBox="0 0 30 22" width="30" height="22" preserveAspectRatio="xMidYMid meet" style="width: 100%; height: 100%; transform: translate3d(0px, 0px, 0px); content-visibility: visible;"><defs><clipPath id="__lottie_element_70"><rect width="30" height="22" x="0" y="0" class="svg-marker-default"></rect></clipPath></defs><g clip-path="url(#__lottie_element_70)"><g transform="matrix(0.07829999923706055,0,0,0.07829999923706055,12.924200057983398,17.378700256347656)" opacity="0.2" style="display: block;"><path fill="rgb(204,160,121)" fill-opacity="1" d=" M52,10.718000411987305 C52,16.636999130249023 40.35900115966797,21.43600082397461 26,21.43600082397461 C11.640999794006348,21.43600082397461 0,16.636999130249023 0,10.718000411987305 C0,4.798999786376953 11.640999794006348,0 26,0 C40.35900115966797,0 52,4.798999786376953 52,10.718000411987305z" class="svg-marker-default-2"></path></g><g transform="matrix(0.07829999923706055,0,0,0.07829999923706055,14.803400039672852,11.70460033416748)" opacity="1" style="display: block;"><g opacity="1" transform="matrix(1,0,0,1,0,0)"><path stroke-linecap="round" stroke-linejoin="miter" fill-opacity="0" stroke-miterlimit="10" stroke="rgb(236,120,31)" stroke-opacity="1" stroke-width="4" d=" M2,2 C2,2 2,3 2,3" class="svg-marker-default-3"></path></g><g opacity="1" transform="matrix(1,0,0,1,0,0)"><path stroke-linecap="round" stroke-linejoin="miter" fill-opacity="0" stroke-miterlimit="10" stroke-dasharray=" 2 6" stroke-dashoffset="0" stroke="rgb(222,143,66)" stroke-opacity="1" stroke-width="4" d=" M2,9 C2,9 2,70 2,70" class="svg-marker-default-4"></path></g><g opacity="1" transform="matrix(1,0,0,1,0,0)"><path stroke-linecap="round" stroke-linejoin="miter" fill-opacity="0" stroke-miterlimit="10" stroke="rgb(190,125,54)" stroke-opacity="1" stroke-width="4" d=" M2,73 C2,73 2,74 2,74" class="svg-marker-default-5"></path></g></g><g transform="matrix(0.07829999923706055,0,0,0.07829999923706055,14.960000038146973,18.200000762939453)" opacity="1" style="display: block;"><g opacity="1" transform="matrix(1,0,0,1,0,0)"><path fill="rgb(184,140,101)" fill-opacity="1" d=" M4,0 C4,2.2090001106262207 2.2090001106262207,4 0,4 C-2.2090001106262207,4 -4,2.2090001106262207 -4,0 C-4,-2.2090001106262207 -2.2090001106262207,-4 0,-4 C2.2090001106262207,-4 4,-2.2090001106262207 4,0z" class="svg-marker-default-6"></path></g></g><g transform="matrix(0.0861000046133995,0,0,0.0861000046133995,10.09535026550293,2.19534969329834)" opacity="1" style="display: block;"><path fill="rgb(236,120,31)" fill-opacity="1" d=" M112.25,56.25 C112.25,87.1780014038086 87.1780014038086,112.25 56.25,112.25 C25.32200050354004,112.25 0.25,87.1780014038086 0.25,56.25 C0.25,25.32200050354004 25.32200050354004,0.25 56.25,0.25 C87.1780014038086,0.25 112.25,25.32200050354004 112.25,56.25z" class="svg-marker-default-7"></path></g><g transform="matrix(0.08609993755817413,0,0,0.08609993755817413,11.257702827453613,3.3577027320861816)" opacity="0.2" style="display: block;"><path fill="rgb(244,244,244)" fill-opacity="1" d=" M86,43 C86,66.74800109863281 66.74800109863281,86 43,86 C19.25200080871582,86 0,66.74800109863281 0,43 C0,19.25200080871582 19.25200080871582,0 43,0 C66.74800109863281,0 86,19.25200080871582 86,43z" class="svg-marker-default-8"></path></g></g></svg>